<svg width="27" height="27" viewBox="0 0 27 27" fill="none" xmlns="http://www.w3.org/2000/svg">
<rect y="0.078125" width="26.026" height="26.026" rx="13.013" fill="white"/>
<path fill-rule="evenodd" clip-rule="evenodd" d="M13.013 0.078125C5.82611 0.078125 0 5.90424 0 13.0911C0 20.278 5.82611 26.1041 13.013 26.1041C20.1999 26.1041 26.026 20.278 26.026 13.0911C26.026 5.90424 20.1999 0.078125 13.013 0.078125ZM6.2481 10.8561H9.19712V19.7167H6.2481V10.8561ZM9.38994 8.11511C9.3708 7.24633 8.74954 6.58462 7.74069 6.58462C6.73185 6.58462 6.0723 7.24633 6.0723 8.11511C6.0723 8.96589 6.71236 9.64665 7.70241 9.64665H7.72126C8.74954 9.64665 9.38994 8.96589 9.38994 8.11511ZM16.4369 10.648C18.3775 10.648 19.8323 11.9147 19.8323 14.6363L19.8322 19.7167H16.8833V14.9762C16.8833 13.7855 16.4565 12.973 15.389 12.973C14.5742 12.973 14.089 13.5208 13.8758 14.0498C13.7979 14.2394 13.7787 14.5036 13.7787 14.7684V19.7169H10.8293C10.8293 19.7169 10.8682 11.6877 10.8293 10.8563H13.7787V12.1113C14.1701 11.508 14.8711 10.648 16.4369 10.648Z" fill="#E4C066"/>
</svg>
