<svg width="27" height="27" viewBox="0 0 27 27" fill="none" xmlns="http://www.w3.org/2000/svg">
<rect width="26.026" height="26.026" rx="13.013" fill="white"/>
<path fill-rule="evenodd" clip-rule="evenodd" d="M13.013 0C5.82611 0 0 5.82611 0 13.013C0 20.1999 5.82611 26.026 13.013 26.026C20.1999 26.026 26.026 20.1999 26.026 13.013C26.026 5.82611 20.1999 0 13.013 0ZM14.3685 13.5846V20.6643H11.4392V13.5849H9.97578V11.1451H11.4392V9.68034C11.4392 7.69002 12.2656 6.50649 14.6134 6.50649H16.568V8.94649H15.3462C14.4323 8.94649 14.3718 9.28744 14.3718 9.92376L14.3685 11.1449H16.5818L16.3228 13.5846H14.3685Z" fill="#E4C066"/>
</svg>
