<svg width="54" height="54" viewBox="0 0 54 54" fill="none" xmlns="http://www.w3.org/2000/svg">
<path d="M9.62727 40.8008L8.30469 41.9625V42.8688L9.62727 41.7071V40.8008Z" fill="#E4C066"/>
<path d="M9.62727 36.3486L8.30469 37.5104V38.6598L9.62727 37.4978V36.3486Z" fill="#E4C066"/>
<path d="M8.6196 32.1904L7.31641 32.3163L7.92953 32.9259L8.92825 32.501L8.6196 32.1904Z" fill="#E4C066"/>
<path d="M7.77813 31.3359H6.33984L6.99383 31.9865L8.3 31.8606L7.77813 31.3359Z" fill="#E4C066"/>
<path d="M6.83124 30.3955H5.38281L5.96731 30.9768H7.40947L6.83124 30.3955Z" fill="#E4C066"/>
<path d="M9.62727 37.9746L8.30469 39.1364V40.1347L9.62727 38.973V37.9746Z" fill="#E4C066"/>
<path d="M9.62727 39.4512L8.30469 40.6129V41.4851L9.62727 40.3233V39.4512Z" fill="#E4C066"/>
<path d="M8.30469 44.238L9.62727 43.076V42.1855L8.30469 43.3473V44.238Z" fill="#E4C066"/>
<path d="M5.06487 28.6074H3.59766L4.13683 29.1438H5.59837L5.06487 28.6074Z" fill="#E4C066"/>
<path d="M6.49422 23.8662H5.04251L4.50781 24.3981H5.96518L6.49422 23.8662Z" fill="#E4C066"/>
<path d="M8.26899 22.0726L8.80458 21.5341L7.80437 21.1084L7.14651 21.7629L6.33984 22.5655H7.77843L8.26899 22.0726Z" fill="#E4C066"/>
<path d="M7.40918 22.9248H5.96701L5.38281 23.5061H6.83094L7.40918 22.9248Z" fill="#E4C066"/>
<path d="M9.62757 19.5078L8.30469 18.3457V19.571L9.62757 20.6467V19.5078Z" fill="#E4C066"/>
<path d="M5.96548 29.5029H4.50781L5.04251 30.0348H6.49451L5.96548 29.5029Z" fill="#E4C066"/>
<path d="M9.62757 18.0312L8.30469 16.8691V17.8675L9.62757 19.0295V18.0312Z" fill="#E4C066"/>
<path d="M3.96055 27.4873L3.77178 27.5044L2.60547 27.6108L3.24544 28.2473H4.71653L3.96055 27.4873Z" fill="#E4C066"/>
<path d="M9.62727 34.8721L8.30469 36.0338V37.0325L9.62727 35.8704V34.8721Z" fill="#E4C066"/>
<path d="M3.4184 26.9506L3.62268 26.7452L2.26491 26.6211L1.93359 26.9506L2.26461 27.2798L3.62268 27.1559L3.4184 26.9506Z" fill="#E4C066"/>
<path d="M5.53217 24.8238L5.59808 24.7578H4.13683L3.59766 25.2942H5.06457L5.53217 24.8238Z" fill="#E4C066"/>
<path d="M3.96026 26.4136L4.71623 25.6533H3.24544L2.60547 26.2898L3.12555 26.3375L3.96026 26.4136Z" fill="#E4C066"/>
<path d="M14.864 44.2188L13.6953 45.6236H14.697L15.866 44.2188H14.864Z" fill="#E4C066"/>
<path d="M23.7305 48.6955L24.2595 49.2322V47.6852L23.7305 47.1533V48.6955Z" fill="#E4C066"/>
<path d="M27.8125 51.2092L28.4668 50.5457V48.9795L27.8125 49.6364V51.2092Z" fill="#E4C066"/>
<path d="M26.5586 50.0044V51.5715L27.0065 52.026L27.4544 51.5718V49.9951L27.0014 50.4496L26.5586 50.0044Z" fill="#E4C066"/>
<path d="M17.3278 16.1426H15.5469V17.9327H17.3278V16.1426ZM16.9685 17.0654C16.9449 17.111 16.9237 17.1523 16.9046 17.1901C16.7573 17.4797 16.7078 17.5775 16.4409 17.5781C16.1737 17.5775 16.1242 17.4797 15.9769 17.1901C15.9578 17.1523 15.9366 17.111 15.9131 17.0654C15.8654 16.9733 15.8704 16.8702 15.9274 16.7746C16.021 16.6178 16.2414 16.4987 16.4403 16.4969C16.6401 16.4984 16.8608 16.6178 16.9541 16.7746C17.0111 16.8702 17.0162 16.9733 16.9685 17.0654Z" fill="#E4C066"/>
<path d="M24.6055 49.5949L25.1837 50.181V48.6262L24.6055 48.0449V49.5949Z" fill="#E4C066"/>
<path d="M28.8164 50.1821L29.3946 49.5957V48.0391L28.8164 48.6195V50.1821Z" fill="#E4C066"/>
<path d="M38.4475 16.1279H36.6367V17.9481H38.4475V16.1279ZM38.0729 17.0657C38.0494 17.1113 38.0282 17.1527 38.0091 17.1904C37.8618 17.4804 37.8123 17.5778 37.5454 17.5784C37.2782 17.5778 37.2287 17.4801 37.0814 17.1901C37.0623 17.1524 37.0411 17.111 37.0175 17.0654C36.9698 16.9734 36.9749 16.8703 37.0319 16.7746C37.1255 16.6178 37.3459 16.4988 37.5448 16.497C37.7446 16.4985 37.965 16.6178 38.0586 16.7746C38.1159 16.8706 38.1209 16.9737 38.0729 17.0657Z" fill="#E4C066"/>
<path d="M32.3711 45.0726L32.499 46.4685L33.0167 45.9432L32.8405 44.6016L32.3711 45.0726Z" fill="#E4C066"/>
<path d="M31.5352 45.8943V47.4284L32.1534 46.8012L32.0254 45.4023L31.5352 45.8943Z" fill="#E4C066"/>
<path d="M9.62727 33.5039L8.30469 34.579V35.5561L9.62727 34.3943V33.5039Z" fill="#E4C066"/>
<path d="M30.6562 48.3331L31.1898 47.7919V46.2539L30.6562 46.7897V48.3331Z" fill="#E4C066"/>
<path d="M29.7656 49.2321L30.2947 48.6957V47.1484L29.7656 47.6794V49.2321Z" fill="#E4C066"/>
<path d="M13.5125 44.2188L12.3438 45.6236H13.2199L14.3889 44.2188H13.5125Z" fill="#E4C066"/>
<path d="M22.8398 47.7912L23.3733 48.3324V46.7932L22.8398 46.2568V47.7912Z" fill="#E4C066"/>
<path d="M9.62757 16.4042L8.30469 15.2422V16.3913L9.62757 17.5534V16.4042Z" fill="#E4C066"/>
<path d="M10.7745 44.2188L9.60547 45.6236H10.5001L11.6691 44.2188H10.7745Z" fill="#E4C066"/>
<path d="M9.62727 44.2184V43.5537L8.30469 44.7155V45.6233H9.15907L10.3281 44.2184H9.62727Z" fill="#E4C066"/>
<path d="M12.1456 44.2188L10.9766 45.6236H11.887L13.056 44.2188H12.1456Z" fill="#E4C066"/>
<path d="M16.3331 44.2188L15.1641 45.6236H16.3161L17.4851 44.2188H16.3331Z" fill="#E4C066"/>
<path d="M21.0586 45.9956L21.5483 46.4924L21.6759 45.0977L21.2348 44.6543L21.0586 45.9956Z" fill="#E4C066"/>
<path d="M21.8711 46.8251L22.4663 47.4289V45.8978L21.999 45.4277L21.8711 46.8251Z" fill="#E4C066"/>
<path d="M18.2461 45.6236H19.3853L20.438 44.2188H19.4151L18.2461 45.6236Z" fill="#E4C066"/>
<path d="M17.9424 44.2188L16.7734 45.6236H17.7751L18.9441 44.2188H17.9424Z" fill="#E4C066"/>
<path d="M25.5508 50.5444L26.2051 51.2082V49.6441L25.5508 48.9863V50.5444Z" fill="#E4C066"/>
<path d="M44.4 9.68321V10.3476L45.7226 9.18584V8.27832H44.8682L43.6992 9.68321H44.4Z" fill="#E4C066"/>
<path d="M43.2228 9.68321L44.3918 8.27832H43.4971L42.3281 9.68321H43.2228Z" fill="#E4C066"/>
<path d="M44.4023 19.0295L45.7249 17.8678V16.8691L44.4023 18.0312V19.0295Z" fill="#E4C066"/>
<path d="M40.4894 9.68321L41.6584 8.27832H40.7823L39.6133 9.68321H40.4894Z" fill="#E4C066"/>
<path d="M44.4023 17.5534L45.7249 16.3916V15.2422L44.4023 16.4042V17.5534Z" fill="#E4C066"/>
<path d="M44.4023 20.597L45.7249 19.5218V18.3457L44.4023 19.5075V20.597Z" fill="#E4C066"/>
<path d="M32.9932 7.95247L32.5065 7.45898L32.3789 8.85339L32.817 9.2938L32.9932 7.95247Z" fill="#E4C066"/>
<path d="M35.7743 8.27832H34.6503L33.5977 9.68321H34.6053L35.7743 8.27832Z" fill="#E4C066"/>
<path d="M36.5352 9.68321H37.6872L38.8562 8.27832H37.7042L36.6884 9.49883L36.5352 9.68321Z" fill="#E4C066"/>
<path d="M35.0703 9.68321H36.072L36.2253 9.49883L37.241 8.27832H36.239L35.2236 9.49883L35.0703 9.68321Z" fill="#E4C066"/>
<path d="M39.1501 9.68321L40.3191 8.27832H39.3174L38.1484 9.68321H39.1501Z" fill="#E4C066"/>
<path d="M46.2271 22.5652H47.6657L47.0257 21.9287L45.9023 22.2387L46.2271 22.5652Z" fill="#E4C066"/>
<path d="M47.172 23.5061H48.6204L48.0362 22.9248H46.5938L47.172 23.5061Z" fill="#E4C066"/>
<path d="M44.4023 15.9267L45.7249 14.765V13.7666L44.4023 14.9284V15.9267Z" fill="#E4C066"/>
<path d="M50.0571 26.4136L51.4115 26.2898L50.7719 25.6533H49.3008L50.0571 26.4136Z" fill="#E4C066"/>
<path d="M32.1784 7.12504L31.5352 6.47266V8.00377L32.0505 8.52214L32.1784 7.12504Z" fill="#E4C066"/>
<path d="M48.944 25.2942H50.4112L49.872 24.7578H48.4102L48.944 25.2942Z" fill="#E4C066"/>
<path d="M48.072 24.3981H49.53L48.9953 23.8662H47.543L48.072 24.3981Z" fill="#E4C066"/>
<path d="M45.6272 21.9455L46.7481 21.6364L46.1988 21.0898L45.1992 21.5153L45.6272 21.9455Z" fill="#E4C066"/>
<path d="M45.7249 9.66406L44.4023 10.8258V11.7162L45.7249 10.5545V9.66406Z" fill="#E4C066"/>
<path d="M44.4023 14.4499L45.7249 13.2882V12.416L44.4023 13.5778V14.4499Z" fill="#E4C066"/>
<path d="M44.4023 13.1006L45.7249 11.9385V11.0322L44.4023 12.194V13.1006Z" fill="#E4C066"/>
<path d="M9.62757 9.68321H10.3284L9.15937 8.27832H8.30469V9.18554L9.62757 10.3476V9.68321Z" fill="#E4C066"/>
<path d="M14.3889 9.68321L13.2199 8.27832H12.3438L13.5127 9.68321H14.3889Z" fill="#E4C066"/>
<path d="M20.4815 9.68321L19.4288 8.27832H18.2461L19.4151 9.68321H20.4815Z" fill="#E4C066"/>
<path d="M13.0557 9.68321L11.887 8.27832H10.9766L12.1456 9.68321H13.0557Z" fill="#E4C066"/>
<path d="M17.4848 9.68321L16.3158 8.27832H15.1641L16.3331 9.68321H17.4848Z" fill="#E4C066"/>
<path d="M18.9441 9.68321L17.7751 8.27832H16.7734L17.9424 9.68321H18.9441Z" fill="#E4C066"/>
<path d="M31.1901 6.10951L30.6562 5.56836V7.10757L31.1901 7.64392V6.10951Z" fill="#E4C066"/>
<path d="M11.6688 9.68321L10.4998 8.27832H9.60547L10.7745 9.68321H11.6688Z" fill="#E4C066"/>
<path d="M9.62757 13.5781L8.30469 12.416V13.2885L9.62757 14.4505V13.5781Z" fill="#E4C066"/>
<path d="M9.62757 12.1943L8.30469 11.0322V11.9388L9.62757 13.1009V12.1943Z" fill="#E4C066"/>
<path d="M9.62757 14.9277L8.30469 13.7656V14.764L9.62757 15.926V14.9277Z" fill="#E4C066"/>
<path d="M9.62757 10.8261L8.30469 9.66406V10.5548L9.62757 11.7168V10.8261Z" fill="#E4C066"/>
<path d="M15.866 9.68321L14.697 8.27832H13.6953L14.8643 9.68321H15.866Z" fill="#E4C066"/>
<path d="M28.4671 3.35713L27.8125 2.69336V4.25745L28.4671 4.91523V3.35713Z" fill="#E4C066"/>
<path d="M26.2051 2.69336L25.5508 3.35683V4.92302L26.2051 4.26615V2.69336Z" fill="#E4C066"/>
<path d="M21.7347 8.74836L21.6068 7.35156L21.0664 7.89961L21.2429 9.24184L21.7347 8.74836Z" fill="#E4C066"/>
<path d="M29.3943 4.30683L28.8164 3.7207V5.2758L29.3943 5.85683V4.30683Z" fill="#E4C066"/>
<path d="M30.2908 5.2056L29.7617 4.66895V6.21595L30.2908 6.74781V5.2056Z" fill="#E4C066"/>
<path d="M27.4541 3.89757V2.33048L27.0062 1.87598L26.5586 2.33018V3.90687L27.0116 3.45236L27.4541 3.89757ZM27.0023 3.18044L27.002 3.18014H27.0023V3.18044Z" fill="#E4C066"/>
<path d="M23.3733 5.56836L22.8398 6.10951V7.64752L23.3733 7.11177V5.56836Z" fill="#E4C066"/>
<path d="M22.4752 8.00677V6.47266L21.9375 7.018L22.0654 8.4178L22.4752 8.00677Z" fill="#E4C066"/>
<path d="M24.2595 4.66895L23.7305 5.2053V6.7526L24.2595 6.22165V4.66895Z" fill="#E4C066"/>
<path d="M25.1837 3.71973L24.6055 4.30615V5.86245L25.1837 5.28232V3.71973Z" fill="#E4C066"/>
<path d="M41.8753 9.68321L43.044 8.27832H42.1338L40.9648 9.68321H41.8753Z" fill="#E4C066"/>
<path d="M29.4466 20.4028H28.9494L29.8351 21.3415H30.5514V13.8925L32.5993 11.834H31.2698L30.2073 12.9025L29.2011 11.8415L28.7428 11.3579L30.2968 9.7959H28.9295L27.2383 11.4958L27.2386 12.2846L27.9626 13.1855L29.4466 15.0332V20.4028ZM29.969 20.7257C30.0713 20.7257 30.1557 20.8027 30.1685 20.9022C30.1739 20.9202 30.1769 20.9394 30.1769 20.9592C30.1769 21.0707 30.0865 21.1616 29.9753 21.1616C29.873 21.1616 29.7886 21.0845 29.7758 20.985C29.7704 20.967 29.7674 20.9478 29.7674 20.928C29.7674 20.8165 29.8578 20.7257 29.969 20.7257Z" fill="#E4C066"/>
<path d="M35.1211 27.4795L40.0181 32.5762H40.6992L35.9248 27.4795H35.1211Z" fill="#E4C066"/>
<path d="M40.0181 21.4238L35.1211 26.5205H35.9251L40.6995 21.4238H40.0181Z" fill="#E4C066"/>
<path d="M46.8395 27.0006L44.3631 24.5107L41.8867 27.0006L44.3631 29.4899L46.8395 27.0006ZM44.3631 27.0006V24.8591L46.4929 27.0006H44.3631V29.1419L42.2332 27.0006H44.3631Z" fill="#E4C066"/>
<path d="M44.0328 33.0353L44.0847 32.9834C44.085 32.9831 44.085 32.9828 44.0853 32.9825L46.0269 31.0308C46.0278 31.0299 46.029 31.0287 46.0299 31.0278L48.7258 28.3175C48.735 28.3055 48.7458 28.2948 48.7577 28.2855L49.8465 27.1909C49.8557 27.1789 49.8665 27.1681 49.8784 27.1591L50.085 26.951L49.8769 26.7418C49.8662 26.7334 49.8566 26.7238 49.8483 26.713L48.7568 25.616C48.7455 25.607 48.735 25.5965 48.7258 25.5848L44.0325 20.8667V10.0431H33.0534L27.0042 3.96094L20.9451 10.0431H9.96602V20.8667L5.27183 25.586C5.26318 25.5968 5.25364 25.6064 5.2429 25.6151L4.40552 26.4566L4.14697 26.7166C4.14011 26.7253 4.13236 26.7331 4.12371 26.74L4.07629 26.7879L3.91406 26.951L4.12669 27.1648C4.13295 27.1702 4.13862 27.1762 4.14428 27.1825L5.24111 28.2852C5.25334 28.2948 5.26438 28.3055 5.27362 28.3178L7.96858 31.0272C7.97007 31.0284 7.97156 31.0299 7.97305 31.0314L8.81282 31.8756C8.81312 31.8762 8.81372 31.8765 8.81402 31.8768L9.91323 32.9819C9.91383 32.9825 9.91472 32.9834 9.91532 32.984L9.96632 33.0353V43.8589H20.9457L26.4987 49.4422C26.4993 49.4425 26.4996 49.4431 26.4999 49.4434L26.9949 49.9411L33.0537 43.8589H44.0328V33.0353ZM39.1355 18.0504H39.5402L39.1355 17.5794V17.198V16.8772V15.5449H40.5643L39.2742 17.0376L40.5643 18.5303H39.1355V18.0504ZM36.0577 13.9997L37.5425 15.2966L39.0273 13.9997V15.436H38.5495V15.0292L38.081 15.436H37.7017H37.3826H36.0574V13.9997H36.0577ZM38.8719 15.7014V18.3741H36.2133V15.7014H38.8719ZM36.0577 18.6392H36.5354V19.046L37.0039 18.6392H37.3832H37.7023H39.0276V20.0756L37.5428 18.7786L36.058 20.0756V18.6392H36.0577ZM34.5207 15.5449H35.9494V16.0252H35.5447L35.9494 16.4962V16.8775V17.1983V18.5306H34.5207L35.8107 17.0379L34.5207 15.5449ZM34.2925 21.8216V22.382C34.2925 22.4506 34.348 22.5061 34.416 22.5061C34.484 22.5061 34.5394 22.4503 34.5394 22.382V21.8216C34.5394 21.3815 34.8958 21.0232 35.3336 21.0232C35.772 21.0232 36.128 21.3815 36.128 21.8216V22.3199C36.128 22.4887 35.9915 22.626 35.8236 22.626C35.6557 22.626 35.5191 22.4887 35.5191 22.3199V21.8216C35.5191 21.7191 35.4359 21.6354 35.3339 21.6354C35.2319 21.6354 35.1487 21.7191 35.1487 21.8216V22.838C35.1487 22.9942 35.0369 23.1243 34.8898 23.1522V23.69H33.9418V23.1522C33.7948 23.124 33.6833 22.9939 33.6833 22.838V21.8216C33.6833 21.7191 33.6001 21.6354 33.4981 21.6354C33.3961 21.6354 33.3129 21.7191 33.3129 21.8216V22.3199C33.3129 22.4887 33.1763 22.626 33.0084 22.626C32.8405 22.626 32.7039 22.4887 32.7039 22.3199V21.8216C32.7039 21.3815 33.0603 21.0232 33.4981 21.0232C33.9359 21.0232 34.2925 21.3815 34.2925 21.8216ZM26.2363 8.23258L26.9911 8.9914L27.7458 8.23258H28.9649L26.9911 10.217L25.0172 8.23258H26.2363ZM19.5658 22.5064C19.6341 22.5064 19.6893 22.4506 19.6893 22.3823V21.8219C19.6893 21.3818 20.0457 21.0235 20.4834 21.0235C20.9212 21.0235 21.2776 21.3818 21.2776 21.8219V22.3202C21.2776 22.489 21.141 22.6263 20.9731 22.6263C20.8052 22.6263 20.6689 22.489 20.6689 22.3202V21.8219C20.6689 21.7194 20.5857 21.6357 20.4837 21.6357C20.3817 21.6357 20.2985 21.7194 20.2985 21.8219V22.8383C20.2985 22.9942 20.187 23.1243 20.04 23.1525V23.6903H19.092V23.1525C18.9446 23.1243 18.8331 22.9942 18.8331 22.8383V21.8219C18.8331 21.7194 18.7499 21.6357 18.6479 21.6357C18.5459 21.6357 18.4627 21.7194 18.4627 21.8219V22.3202C18.4627 22.489 18.3261 22.6263 18.1583 22.6263C17.9904 22.6263 17.8538 22.489 17.8538 22.3202V21.8219C17.8538 21.3815 18.2101 21.0232 18.6482 21.0232C19.0863 21.0232 19.4427 21.3815 19.4427 21.8219V22.382C19.4424 22.4506 19.4978 22.5064 19.5658 22.5064ZM18.0303 18.0504H18.435L18.0303 17.5794V17.198V16.8772V15.5449H19.4591L18.169 17.0376L19.4591 18.5303H18.0303V18.0504ZM14.9522 13.9997L16.437 15.2966L17.9218 13.9997V15.436H17.444V15.0292L16.9755 15.436H16.5962H16.2771H14.9522V13.9997ZM17.7813 15.6864V18.3891H15.0929V15.6864H17.7813ZM14.9522 18.6392H15.4299V19.046L15.8984 18.6392H16.2777H16.5968H17.9221V20.0756L16.4373 18.7786L14.9525 20.0756V18.6392H14.9522ZM13.4152 15.5449H14.8439V16.0252H14.4392L14.8439 16.4962V16.8775V17.1983V18.5306H13.4152L14.7052 17.0379L13.4152 15.5449ZM14.8439 35.9506H14.4392L14.8439 36.4213V38.4561H13.4152L14.7052 36.9634L13.4152 35.4703H14.8439V35.9506ZM17.9218 40.0013L16.437 38.7043L14.9522 40.0013V38.5649H15.4296V38.9718L15.8981 38.5649H17.9218V40.0013ZM15.1078 38.2996V35.6268H17.7664V38.2996H15.1078ZM17.9218 35.3615H17.444V34.9547L16.9755 35.3615H16.5962H16.2771H14.9522V33.9251L16.437 35.2221L17.9218 33.9251V35.3615ZM19.4588 38.4561H18.0303V37.9758H18.435L18.0303 37.5051V35.4703H19.4588L18.169 36.9634L19.4588 38.4561ZM20.4837 30.9226C20.3817 30.9226 20.2985 31.0062 20.2985 31.1087V32.1251C20.2985 32.281 20.187 32.4111 20.04 32.4393V32.9771H19.092V32.4393C18.9446 32.4111 18.8331 32.281 18.8331 32.1251V31.1087C18.8331 31.0062 18.7499 30.9226 18.6479 30.9226C18.5459 30.9226 18.4627 31.0062 18.4627 31.1087V31.6073C18.4627 31.7761 18.3261 31.9134 18.1583 31.9134C17.9904 31.9134 17.8538 31.7761 17.8538 31.6073V31.109C17.8538 30.6686 18.2101 30.3104 18.6482 30.3104C19.0863 30.3104 19.4427 30.6686 19.4427 31.109V31.6691C19.4427 31.7377 19.4981 31.7932 19.5664 31.7932C19.6347 31.7932 19.6899 31.7374 19.6899 31.6691V31.1087C19.6899 30.6686 20.0462 30.3104 20.484 30.3104C20.9218 30.3104 21.2782 30.6686 21.2782 31.1087V31.607C21.2782 31.7758 21.1416 31.9131 20.9737 31.9131C20.8058 31.9131 20.6692 31.7758 20.6692 31.607V31.1084C20.6689 31.0059 20.5857 30.9226 20.4837 30.9226ZM27.7458 45.7288L26.9911 44.97L26.2363 45.7288H25.0172L26.9911 43.7444L28.9649 45.7288H27.7458ZM35.9494 35.9506H35.5447L35.9494 36.4216V36.803V37.1238V38.4561H34.5207L35.8107 36.9634L34.5207 35.4706H35.9494V35.9506ZM35.8242 31.9131C35.6563 31.9131 35.5197 31.7758 35.5197 31.607V31.1084C35.5197 31.0059 35.4365 30.9223 35.3345 30.9223C35.2325 30.9223 35.1493 31.0059 35.1493 31.1084V32.1248C35.1493 32.281 35.0375 32.4111 34.8904 32.4393V32.9771H33.9424V32.4393C33.7954 32.4111 33.6839 32.281 33.6839 32.1251V31.1087C33.6839 31.0062 33.6007 30.9226 33.4987 30.9226C33.3967 30.9226 33.3135 31.0062 33.3135 31.1087V31.6073C33.3135 31.7761 33.1769 31.9134 33.009 31.9134C32.8411 31.9134 32.7045 31.7761 32.7045 31.6073V31.109C32.7045 30.6689 33.0609 30.3107 33.4987 30.3107C33.9365 30.3107 34.2928 30.6689 34.2928 31.109V31.6694C34.2928 31.738 34.3483 31.7935 34.4163 31.7935C34.4843 31.7935 34.5397 31.7377 34.5397 31.6694V31.109C34.5397 30.6689 34.8961 30.3107 35.3339 30.3107C35.7723 30.3107 36.1283 30.6689 36.1283 31.109V31.6073C36.1286 31.7758 35.992 31.9131 35.8242 31.9131ZM39.0273 40.0013L37.5425 38.7043L36.0577 40.0013V38.5649H36.5354V38.9718L37.0039 38.5649H37.3832H37.7023H39.0276V40.0013H39.0273ZM36.213 38.2996V35.6268H38.8716V38.2996H36.213ZM39.0273 35.3615H38.5495V34.9547L38.081 35.3615H37.7017H37.3826H36.0574V33.9251L37.5422 35.2221L39.027 33.9251V35.3615H39.0273ZM40.5643 38.4561H39.1355V37.9758H39.5402L39.1355 37.5048V37.1235V36.8027V35.4703H40.5643L39.2742 36.9631L40.5643 38.4561ZM42.4546 31.6772H40.9126L40.895 31.6586L36.7477 27.3H36.2077L41.4303 32.8764H39.8876L39.87 32.8581L34.5308 27.3H32.5975V28.6377L28.005 33.2718V40.2738L29.1394 38.8614V33.8954H28.2483L29.6976 32.3607H30.8374V39.9839L33.3045 42.4642H31.1365L30.2016 41.5246L29.8587 41.8868L31.266 43.3019H30.2476L29.361 42.4109L29.1468 42.6372L31.0026 44.5026H28.7961L26.9911 42.6882L25.186 44.5026H22.9795L24.8353 42.6372L24.6211 42.4109L23.7346 43.3019H22.7162L24.1237 41.8868L23.7805 41.5246L22.8456 42.4642H20.6776L23.1447 39.9839V32.3607H24.2845L25.7338 33.8954H24.8427V38.8614L25.9771 40.2741V33.2718L21.3846 28.6377V27.3H19.451L14.0945 32.8764H12.5518L17.7745 27.3H17.2347L13.0698 31.6772H11.5278L15.5584 27.3H15.1338L11.7744 30.8677H10.2302L13.4551 27.3H12.7135L9.6177 30.4126L6.20852 26.9852L9.6177 23.5578L12.7132 26.6704H13.448L10.2499 23.1327H11.7827L15.115 26.6716L15.5519 26.6932L11.5278 22.3232H13.0698L17.235 26.7004H17.7745L12.5518 21.124H14.0945L19.451 26.7004H21.3846V25.3626L21.4019 25.3453L25.9771 20.7285V20.7264V13.7265L24.8427 15.1389V20.1049H25.7341L24.2845 21.6396H23.1447V14.0165L20.6779 11.5362H22.8456L23.7808 12.4757L24.1237 12.1136L22.7162 10.6985H23.7349L24.6211 11.5895L24.8353 11.3632L22.9795 9.49777H25.186L26.9911 11.3122L28.7961 9.49777H31.0026L29.1468 11.3632L29.361 11.5895L30.2476 10.6985H31.266L29.8584 12.1136L30.2016 12.4757L31.1365 11.5362H33.3045L30.8374 14.0165V21.6396H29.6976L28.2483 20.1049H29.1394V15.1389L28.005 13.7262V20.7285L32.5975 25.3626V26.7004H34.5308L39.8876 21.124H41.4303L36.2077 26.7004H36.7474L40.9126 22.3232H42.4546L38.4305 26.6932L38.8671 26.6716L42.1994 23.1327H43.7325L40.5341 26.6704H41.2692L44.3647 23.5578L47.7739 26.9852L44.3647 30.4126L41.2686 27.3H40.527L43.7522 30.8677H42.2077L38.8486 27.3H38.424L42.4546 31.6772Z" fill="#E4C066"/>
<path d="M27.0004 19.624L26.582 20.0447H26.8221L27.0004 19.8654L27.1785 20.0447H27.4188L27.0004 19.624Z" fill="#E4C066"/>
<path d="M26.0598 21.3936L22.1055 25.3843V28.5856L26.0598 32.5763H27.9326L31.8869 28.5856V25.3843L27.9326 21.3936H26.0598ZM24.1727 24.4441L25.4854 23.297L25.7407 22.3511L26.5656 22.2075L26.4167 22.8359L26.3896 24.7148L25.8549 24.5322L24.801 25.1498L24.6161 25.6247L24.2678 25.1945H24.0346L24.1727 24.4441ZM26.4072 31.6275H25.8991V31.0638H25.5102V30.7709H25.1213V30.3611H24.7327V30.1506H24.3439V29.6397H24.7327V29.4296H25.1216V29.0197H25.5105V28.7268H25.8993V28.2831H24.6761V28.8734H24.2872V29.5495H23.779V29.1595H23.3902V26.7502H23.779V26.3602H24.1679V25.9857H24.6761V26.576H25.0649V27.7722H26.4075V31.6275H26.4072ZM27.0707 26.6327H26.9216V26.4411H26.7931V26.1902H26.9216V25.9989H27.0707V26.1902H27.1993V26.4411H27.0707V26.6327ZM27.1313 27.6208H27.0716L27.0713 27.2092H27.0716V26.74H27.3803V26.4465H27.7432V26.2339H27.3803V25.9404H27.0716V25.4709H26.9207V25.9404H26.6121V26.2339H26.2492V26.4465H26.6121V26.74H26.9207V27.6208H26.8611C26.8125 27.6208 26.7654 27.6065 26.7245 27.5795C26.6866 27.5546 26.6565 27.5192 26.6371 27.4772L26.0559 26.7319H25.6626V25.9965H26.0252V25.6445H26.3341V25.351H26.5656L26.6249 25.0689C26.6619 24.8935 26.8178 24.7664 26.9959 24.7664C27.1739 24.7664 27.3302 24.8935 27.3669 25.0689L27.4262 25.351H27.6573V25.6445H27.9663V25.9965H28.3292V26.7319H27.9356L27.3546 27.4772C27.315 27.5648 27.2279 27.6208 27.1313 27.6208ZM30.6022 26.7505V29.1598H30.2133V29.5498H29.7052V28.8737H29.3163V28.2834H28.093V28.7271H28.4819V29.02H28.8708V29.4299H29.2596V29.64H29.6485V30.1509H29.2596V30.3614H28.8708V30.7712H28.4819V31.0641H28.093V31.6278H27.5849V27.7725H28.9274V26.5763H29.3163V25.986H29.8244V26.3605H30.2133V26.7505H30.6022ZM28.5069 23.297L29.8197 24.4441L29.9574 25.1945H29.7242L29.3759 25.6247L29.191 25.1498L28.1371 24.5322L27.6024 24.7148L27.5753 22.8359L27.4265 22.2075L28.2514 22.3511L28.5069 23.297Z" fill="#E4C066"/>
<path d="M43.0518 30.5675L40.2712 27.4795H39.4648L42.3665 30.5675H43.0518Z" fill="#E4C066"/>
<path d="M27.0004 14.9463L26.582 15.3669H26.8221L27.0004 15.1876L27.1785 15.3669H27.4188L27.0004 14.9463Z" fill="#E4C066"/>
<path d="M27.0004 15.876L26.582 16.2966H26.8221L27.0004 16.1173L27.1785 16.2966H27.4188L27.0004 15.876Z" fill="#E4C066"/>
<path d="M26.8221 14.4382L27.0004 14.2592L27.1785 14.4382H27.4188L27.0004 14.0176L26.582 14.4382H26.8221Z" fill="#E4C066"/>
<path d="M27.0004 17.7354L26.582 18.156H26.8221L27.0004 17.9767L27.1785 18.156H27.4188L27.0004 17.7354Z" fill="#E4C066"/>
<path d="M27.0004 16.8057L26.582 17.2263H26.8221L27.0004 17.047L27.1785 17.2263H27.4188L27.0004 16.8057Z" fill="#E4C066"/>
<path d="M27.4188 19.0847L27.0004 18.6641L26.582 19.0847H26.8221L27.0004 18.9054L27.1785 19.0847H27.4188Z" fill="#E4C066"/>
<path d="M26.7709 11.4958L25.0797 9.7959H23.7124L25.2664 11.3579L24.808 11.8415L23.8018 12.9025L22.7393 11.834H21.4102L23.4577 13.8925V21.3415H24.174L25.0597 20.4028H24.5626V15.0332L26.0465 13.1855L26.7706 12.2846L26.7709 11.4958ZM24.0401 21.1307C23.9292 21.1307 23.8388 21.0399 23.8388 20.928C23.8388 20.8165 23.9292 20.7257 24.0401 20.7257C24.1513 20.7257 24.2417 20.8165 24.2417 20.928C24.2417 21.0399 24.1513 21.1307 24.0401 21.1307Z" fill="#E4C066"/>
<path d="M43.0518 23.4326H42.3665L39.4648 26.5206H40.2715L43.0518 23.4326Z" fill="#E4C066"/>
<path d="M27.1788 35.8438L27.0004 36.023L26.8224 35.8438H26.582L27.0004 36.2644L27.4188 35.8438H27.1788Z" fill="#E4C066"/>
<path d="M27.1788 34.915L27.0004 35.0943L26.8224 34.915H26.582L27.0004 35.3357L27.4188 34.915H27.1788Z" fill="#E4C066"/>
<path d="M26.0468 40.8151L24.5629 38.9674V33.5979H25.06L24.1743 32.6592H23.458V40.1082L21.4102 42.1667H22.7396L23.8021 41.0981L24.8083 42.1592L25.2667 42.6427L23.7127 44.2047H25.08L26.7712 42.5048L26.7709 41.716L26.0468 40.8151ZM24.0344 33.2441C23.9232 33.2441 23.8328 33.1533 23.8328 33.0414C23.8328 32.9299 23.9232 32.8391 24.0344 32.8391C24.1454 32.8391 24.2357 32.9299 24.2357 33.0414C24.2357 33.1533 24.1454 33.2441 24.0344 33.2441Z" fill="#E4C066"/>
<path d="M27.1788 33.9551L27.0004 34.1344L26.8224 33.9551H26.582L27.0004 34.3757L27.4188 33.9551H27.1788Z" fill="#E4C066"/>
<path d="M26.0726 22.733C26.126 22.733 26.1695 22.6899 26.1695 22.6365C26.1695 22.5828 26.126 22.5391 26.0726 22.5391C26.0195 22.5391 25.9766 22.5828 25.9766 22.6365C25.9766 22.6899 26.0195 22.733 26.0726 22.733Z" fill="#E4C066"/>
<path d="M27.2386 41.716L27.2383 42.5048L28.9295 44.2047H30.2968L28.7428 42.6427L29.2011 42.1592L30.2073 41.0981L31.2698 42.1667H32.5993L30.5514 40.1082V32.6592H29.8351L28.9494 33.5979H29.4466V38.9674L27.9626 40.8151L27.2386 41.716ZM29.975 32.8391C30.0862 32.8391 30.1766 32.9299 30.1766 33.0414C30.1766 33.1533 30.0862 33.2441 29.975 33.2441C29.8641 33.2441 29.7737 33.1533 29.7737 33.0414C29.7737 32.9299 29.8641 32.8391 29.975 32.8391Z" fill="#E4C066"/>
<path d="M27.1788 39.5615L27.0004 39.7405L26.8224 39.5615H26.582L27.0004 39.9822L27.4188 39.5615H27.1788Z" fill="#E4C066"/>
<path d="M26.8224 38.6328H26.582L27.0004 39.0534L27.4188 38.6328H27.1788L27.0004 38.8121L26.8224 38.6328Z" fill="#E4C066"/>
<path d="M13.293 32.5762H13.9741L18.8711 27.4795H18.0674L13.293 32.5762Z" fill="#E4C066"/>
<path d="M10.9492 23.4326L13.7298 26.5206H14.5361L11.6348 23.4326H10.9492Z" fill="#E4C066"/>
<path d="M10.9492 30.5675H11.6348L14.5361 27.4795H13.7298L10.9492 30.5675Z" fill="#E4C066"/>
<path d="M27.1788 36.7744L27.0004 36.9537L26.8224 36.7744H26.582L27.0004 37.195L27.4188 36.7744H27.1788Z" fill="#E4C066"/>
<path d="M7.14844 27.0003L9.62511 29.4896L12.1012 27.0003L9.62511 24.5107L7.14844 27.0003ZM9.62481 27.0006V29.1419L7.49496 27.0006H9.62481V24.8591L11.7547 27.0006H9.62481Z" fill="#E4C066"/>
<path d="M27.1788 37.7031L27.0004 37.8824L26.8224 37.7031H26.582L27.0004 38.1238L27.4188 37.7031H27.1788Z" fill="#E4C066"/>
<path d="M13.293 21.4238L18.0674 26.5205H18.8711L13.9741 21.4238H13.293Z" fill="#E4C066"/>
<path d="M45.1406 32.4383L46.1402 32.8637L46.7155 32.2914L45.4982 32.0791L45.1406 32.4383Z" fill="#E4C066"/>
<path d="M44.4023 40.3233L45.7252 41.4854V40.6132L44.4023 39.4512V40.3233Z" fill="#E4C066"/>
<path d="M44.4023 41.7074L45.7252 42.8694V41.9628L44.4023 40.8008V41.7074Z" fill="#E4C066"/>
<path d="M46.5938 30.9768H48.0362L48.6204 30.3955H47.172L46.5938 30.9768Z" fill="#E4C066"/>
<path d="M47.543 30.0348H48.9953L49.5297 29.5029H48.072L47.543 30.0348Z" fill="#E4C066"/>
<path d="M15.5312 37.8729H17.342V36.0527H15.5312V37.8729ZM15.9264 36.6997C16.02 36.5429 16.2404 36.4239 16.4393 36.4221C16.6391 36.4239 16.8598 36.5429 16.9531 36.6997C17.0104 36.7954 17.0155 36.8985 16.9677 36.9905C16.9439 37.0361 16.9227 37.0778 16.9036 37.1153C16.7563 37.4052 16.7068 37.5026 16.4399 37.5035C16.173 37.5026 16.1232 37.4052 15.9762 37.1153C15.9568 37.0778 15.9359 37.0361 15.9121 36.9905C15.8903 36.9489 15.8796 36.9048 15.8796 36.8601C15.8796 36.8065 15.8954 36.7519 15.9264 36.6997Z" fill="#E4C066"/>
<path d="M48.4102 29.1438H49.8717L50.4109 28.6074H48.9437L48.4102 29.1438Z" fill="#E4C066"/>
<path d="M44.4023 37.4978L45.7252 38.6598V37.5107L44.4023 36.3486V37.4978Z" fill="#E4C066"/>
<path d="M44.4023 34.3938L45.7252 35.5559V34.5617L44.4023 33.4863V34.3938Z" fill="#E4C066"/>
<path d="M44.4023 38.973L45.7252 40.135V39.1367L44.4023 37.9746V38.973Z" fill="#E4C066"/>
<path d="M27.929 22.733C27.982 22.733 28.025 22.6899 28.025 22.6365C28.025 22.5828 27.9817 22.5391 27.929 22.5391C27.8756 22.5391 27.832 22.5828 27.832 22.6365C27.832 22.6899 27.8756 22.733 27.929 22.733Z" fill="#E4C066"/>
<path d="M45.8125 31.7677L47.0325 31.9805L47.6805 31.3359H46.2419L45.8125 31.7677Z" fill="#E4C066"/>
<path d="M44.4023 35.8704L45.7252 37.0325V36.0341L44.4023 34.8721V35.8704Z" fill="#E4C066"/>
<path d="M50.0607 27.4873L49.3047 28.2473H50.7755L51.4151 27.6108L50.8515 27.5593L50.0607 27.4873Z" fill="#E4C066"/>
<path d="M44.4023 43.076L45.7252 44.238V43.3476L44.4023 42.1855V43.076Z" fill="#E4C066"/>
<path d="M38.1484 44.2188L39.3174 45.6236H40.3191L39.1501 44.2188H38.1484Z" fill="#E4C066"/>
<path d="M39.6172 44.2188L40.7862 45.6236H41.6623L40.4933 44.2188H39.6172Z" fill="#E4C066"/>
<path d="M47.1378 20.1734V6.90485H33.8076L26.9997 0L20.1921 6.90485H6.8619V20.1734L0 27L6.8622 33.8266V47.0951H20.1924L27.0003 54L33.8079 47.0951H47.1381V33.8266L54 27L47.1378 20.1734ZM51.951 27.59C51.948 27.593 51.9453 27.5957 51.9423 27.5984L50.9994 28.5368C50.9895 28.5497 50.9779 28.5611 50.9648 28.571L46.0803 33.4303V45.9832H33.4701L27.0086 52.5366L20.5469 45.9832H7.93697V33.4303L3.05133 28.5704C3.0391 28.5608 3.02807 28.55 3.01852 28.5377L1.79704 27.3226L1.42338 26.9508L1.79734 26.5788L2.06155 26.3158C2.06722 26.3095 2.07348 26.3033 2.07974 26.2979L3.01673 25.3655C3.02717 25.352 3.0394 25.34 3.05282 25.3298L7.93637 20.4714V7.9185H20.5466L22.5268 5.91009L22.5298 5.90709L23.4185 5.00587C23.4193 5.00498 23.4202 5.00408 23.4211 5.00318L25.2426 3.15547C25.2426 3.15547 25.2426 3.15547 25.2429 3.15547L27.0081 1.36502L28.772 3.15397C28.7732 3.15517 28.7744 3.15637 28.7759 3.15757L30.5947 5.00258C30.5962 5.00378 30.5974 5.00527 30.5989 5.00677L31.4866 5.90709C31.4875 5.90799 31.4887 5.90919 31.4899 5.91039L33.3039 7.75031L33.4993 7.9185H46.0797V20.4714L47.2106 21.5963C47.2138 21.5993 47.2168 21.6023 47.2198 21.6053L50.9645 25.3304C50.9776 25.3403 50.9889 25.3517 50.9988 25.3646L51.8937 26.2547L51.9462 26.3068L52.5933 26.9508L52.2197 27.3226L51.951 27.59Z" fill="#E4C066"/>
<path d="M36.6367 37.8732H38.4475V36.0527H36.6367V37.8732ZM37.0319 36.7C37.1255 36.5432 37.3459 36.4242 37.5448 36.4224C37.7446 36.4239 37.965 36.5432 38.0586 36.7C38.1156 36.7957 38.1206 36.8988 38.0729 36.9908C38.0494 37.0364 38.0282 37.0778 38.0091 37.1156C37.8618 37.4052 37.8123 37.5029 37.5454 37.5035C37.2782 37.5029 37.2287 37.4052 37.0814 37.1153C37.0623 37.0775 37.0411 37.0361 37.0175 36.9905C36.9698 36.8988 36.9749 36.7957 37.0319 36.7Z" fill="#E4C066"/>
<path d="M35.0703 44.2188L36.239 45.6236H37.241L36.072 44.2188H35.0703Z" fill="#E4C066"/>
<path d="M36.5352 44.2188L37.7042 45.6236H38.8559L37.6872 44.2188H36.5352Z" fill="#E4C066"/>
<path d="M42.3281 44.2188L43.4971 45.6236H44.3915L43.2228 44.2188H42.3281Z" fill="#E4C066"/>
<path d="M44.4036 44.2184H43.7031L44.8721 45.6233H45.7265V44.7158L44.4036 43.5537V44.2184Z" fill="#E4C066"/>
<path d="M50.3945 26.7452L50.5991 26.9506L50.3948 27.1559L51.274 27.2363L51.7529 27.2798L52.0836 26.9506L51.7526 26.6211L50.3945 26.7452Z" fill="#E4C066"/>
<path d="M40.9648 44.2188L42.1338 45.6236H43.044L41.875 44.2188H40.9648Z" fill="#E4C066"/>
<path d="M33.6406 44.2188L34.6933 45.6236H35.7746L34.6056 44.2188H33.6406Z" fill="#E4C066"/>
</svg>
