<svg width="27" height="27" viewBox="0 0 27 27" fill="none" xmlns="http://www.w3.org/2000/svg">
<rect y="0.0263672" width="26.026" height="26.026" rx="13.013" fill="white"/>
<path fill-rule="evenodd" clip-rule="evenodd" d="M13.013 0.0263672C5.82611 0.0263672 0 5.85248 0 13.0394C0 20.2262 5.82611 26.0523 13.013 26.0523C20.1999 26.0523 26.026 20.2262 26.026 13.0394C26.026 5.85248 20.1999 0.0263672 13.013 0.0263672ZM10.1515 6.14113C10.8918 6.10744 11.1283 6.0992 13.0132 6.0992H13.011C14.8965 6.0992 15.1322 6.10744 15.8725 6.14113C16.6113 6.17497 17.116 6.29194 17.5584 6.46357C18.0153 6.64069 18.4014 6.87782 18.7874 7.26387C19.1735 7.64964 19.4106 8.03685 19.5885 8.49333C19.7591 8.93462 19.8762 9.43895 19.9109 10.1778C19.9441 10.9181 19.9528 11.1547 19.9528 13.0395C19.9528 14.9244 19.9441 15.1604 19.9109 15.9007C19.8762 16.6393 19.7591 17.1437 19.5885 17.5852C19.4106 18.0415 19.1735 18.4287 18.7874 18.8145C18.4018 19.2005 18.0152 19.4382 17.5588 19.6155C17.1173 19.7871 16.6124 19.9041 15.8735 19.9379C15.1332 19.9716 14.8974 19.9799 13.0123 19.9799C11.1276 19.9799 10.8912 19.9716 10.1509 19.9379C9.41219 19.9041 8.90772 19.7871 8.46614 19.6155C8.00996 19.4382 7.62274 19.2005 7.23712 18.8145C6.85121 18.4287 6.61408 18.0415 6.43667 17.585C6.26519 17.1437 6.14821 16.6394 6.11423 15.9005C6.08069 15.1602 6.0723 14.9244 6.0723 13.0395C6.0723 11.1547 6.08098 10.918 6.11409 10.1777C6.14735 9.43909 6.26446 8.93462 6.43653 8.49318C6.61437 8.03685 6.8515 7.64964 7.23756 7.26387C7.62332 6.87796 8.01054 6.64084 8.46701 6.46357C8.9083 6.29194 9.41263 6.17497 10.1515 6.14113Z" fill="#E4C066"/>
<path fill-rule="evenodd" clip-rule="evenodd" d="M12.3912 7.34939C12.5121 7.3492 12.6422 7.34926 12.7825 7.34932L13.0138 7.34939C14.8669 7.34939 15.0865 7.35604 15.8183 7.3893C16.495 7.42024 16.8623 7.53331 17.1069 7.62831C17.4308 7.7541 17.6617 7.90447 17.9045 8.14738C18.1474 8.3903 18.2978 8.62164 18.4238 8.94552C18.5188 9.18988 18.632 9.55714 18.6628 10.2338C18.6961 10.9654 18.7033 11.1852 18.7033 13.0374C18.7033 14.8896 18.6961 15.1094 18.6628 15.841C18.6319 16.5177 18.5188 16.885 18.4238 17.1293C18.298 17.4532 18.1474 17.6838 17.9045 17.9266C17.6616 18.1695 17.4309 18.3199 17.1069 18.4457C16.8625 18.5411 16.495 18.6539 15.8183 18.6848C15.0867 18.7181 14.8669 18.7253 13.0138 18.7253C11.1606 18.7253 10.941 18.7181 10.2094 18.6848C9.53269 18.6536 9.16543 18.5405 8.92064 18.4455C8.59676 18.3197 8.36541 18.1694 8.1225 17.9265C7.87959 17.6835 7.72922 17.4528 7.60313 17.1288C7.50814 16.8844 7.39492 16.5171 7.36413 15.8405C7.33087 15.1088 7.32422 14.8891 7.32422 13.0357C7.32422 11.1823 7.33087 10.9637 7.36413 10.2321C7.39507 9.5554 7.50814 9.18815 7.60313 8.9435C7.72893 8.61962 7.87959 8.38827 8.1225 8.14536C8.36541 7.90245 8.59676 7.75208 8.92064 7.62599C9.16529 7.53056 9.53269 7.41778 10.2094 7.3867C10.8496 7.35778 11.0977 7.3491 12.3912 7.34766V7.34939ZM16.718 8.50173C16.2582 8.50173 15.8852 8.87433 15.8852 9.33428C15.8852 9.79407 16.2582 10.1671 16.718 10.1671C17.1778 10.1671 17.5509 9.79407 17.5509 9.33428C17.5509 8.87448 17.1778 8.50144 16.718 8.50144V8.50173ZM9.45069 13.0388C9.45069 11.0705 11.0465 9.47473 13.0147 9.47466C14.983 9.47466 16.5784 11.0705 16.5784 13.0388C16.5784 15.0071 14.9831 16.6022 13.0148 16.6022C11.0465 16.6022 9.45069 15.0071 9.45069 13.0388Z" fill="#E4C066"/>
<path d="M13.0127 10.7256C14.2903 10.7256 15.3261 11.7613 15.3261 13.039C15.3261 14.3166 14.2903 15.3525 13.0127 15.3525C11.7349 15.3525 10.6992 14.3166 10.6992 13.039C10.6992 11.7613 11.7349 10.7256 13.0127 10.7256Z" fill="#E4C066"/>
</svg>
