<svg width="46" height="46" viewBox="0 0 46 46" fill="none" xmlns="http://www.w3.org/2000/svg">
<path d="M14.1367 37.0937V12.6494H20.029V37.0937" stroke="#E4C066" stroke-width="1.22597" stroke-miterlimit="10"/>
<path d="M20.0273 37.0937V12.6494H26.4943V37.0937" stroke="#E4C066" stroke-width="1.22597" stroke-miterlimit="10"/>
<path d="M26.4943 10.7021H20.0273V12.6499H26.4943V10.7021Z" stroke="#E4C066" stroke-width="1.22597" stroke-miterlimit="10"/>
<path d="M20.0294 10.7021V12.6499H14.1371C13.8505 11.6768 14.5799 10.7021 15.5929 10.7021H20.0294Z" stroke="#E4C066" stroke-width="1.22597" stroke-miterlimit="10"/>
<path d="M32.3884 37.0937V12.6494H26.4961V37.0937" stroke="#E4C066" stroke-width="1.22597" stroke-miterlimit="10"/>
<path d="M26.4961 10.7021V12.6499H32.3884C32.675 11.6768 31.9455 10.7021 30.9326 10.7021H26.4961Z" stroke="#E4C066" stroke-width="1.22597" stroke-miterlimit="10"/>
<path d="M27.8658 10.7026C26.5203 9.17931 25.0139 7.93495 23.2669 7.10742C21.5199 7.93495 20.0119 9.17931 18.668 10.7026" stroke="#E4C066" stroke-width="1.22597" stroke-miterlimit="10"/>
<path d="M15.7942 25.1699V28.595C15.7942 29.4501 15.1 30.1443 14.2449 30.1443H6.92432C6.06767 30.1443 5.375 29.4501 5.375 28.595V25.1699H15.7942Z" fill="white" stroke="#E4C066" stroke-width="1.22597" stroke-miterlimit="10"/>
<path d="M15.7942 23.0771H5.375V25.169H15.7942V23.0771Z" fill="white" stroke="#E4C066" stroke-width="1.22597" stroke-miterlimit="10"/>
<path d="M6.8867 20.025L12.1951 18.2213C13.4533 17.7937 14.8202 18.468 15.2478 19.7262L5.38181 23.0776C4.95579 21.8195 5.62855 20.4525 6.8867 20.025Z" fill="white" stroke="#E4C066" stroke-width="1.22597" stroke-miterlimit="10"/>
<path d="M9.92969 26.3252V29.1005L12.2253 27.7121L9.92969 26.3252Z" fill="#E4C066"/>
<path d="M34.1607 29.8849C36.7649 29.8849 38.8761 27.7737 38.8761 25.1695C38.8761 22.5653 36.7649 20.4541 34.1607 20.4541C31.5565 20.4541 29.4453 22.5653 29.4453 25.1695C29.4453 27.7737 31.5565 29.8849 34.1607 29.8849Z" fill="white" stroke="#E4C066" stroke-width="1.22597" stroke-miterlimit="10"/>
<path d="M31.6914 24.9461L33.5932 26.69L36.6842 23.4014" stroke="#E4C066" stroke-width="1.22597" stroke-miterlimit="10"/>
<path d="M45 12.639V33.3227H41.883V36.7814H38.3507V39.3238H35.0314V40.7352L32.7725 42.2201H30.8631V43.4308L28.9628 45.0031H17.0387L15.1354 43.4721V42.2615H13.2275L10.9687 40.7781V39.3651H7.64935V36.8228H4.11702V33.364H1V12.6804H4.11702V9.22165H7.64935V6.6793H10.9687V5.26637L13.2275 3.78295H15.1354V2.5723L17.0372 1H28.9613L30.8631 2.53093V3.74157H32.7725L35.0314 5.22499V6.63792H38.3507V9.18027H41.883V12.639H45Z" stroke="#E4C066" stroke-width="1.22597" stroke-miterlimit="10"/>
</svg>
