<svg width="45" height="45" viewBox="0 0 45 45" fill="none" xmlns="http://www.w3.org/2000/svg">
<path d="M44 12.4449V32.6563H40.9524V36.0363H37.502V38.5208H34.2567V39.9016L32.0493 41.3512H30.1848V42.5343L28.3278 44.0708H16.6737L14.8152 42.5747V41.3932H12.9492L10.7418 39.942V38.5612H7.498V36.0767H4.04608V32.6982H1V12.4854H4.04608V9.10535H7.498V6.62085H10.7418V5.24009L12.9492 3.79044H14.8152V2.60735L16.6722 1.06934H28.3248L30.1848 2.56542V3.75001H32.0493L34.2567 5.19965V6.57894H37.502V9.06341H40.9524V12.4449H44Z" stroke="#E4C066" stroke-width="1.19806" stroke-miterlimit="10"/>
<path d="M36.5755 12.167H20.4766V32.9759H36.5755V12.167Z" fill="white" stroke="#E4C066" stroke-width="1.19806" stroke-miterlimit="10"/>
<path d="M22.7188 22.9023H34.34" stroke="#E4C066" stroke-width="1.19806" stroke-miterlimit="10"/>
<path d="M22.7188 24.5957H34.34" stroke="#E4C066" stroke-width="1.19806" stroke-miterlimit="10"/>
<path d="M22.7188 26.2881H34.34" stroke="#E4C066" stroke-width="1.19806" stroke-miterlimit="10"/>
<path d="M24.7852 27.9805H32.2701" stroke="#E4C066" stroke-width="1.19806" stroke-miterlimit="10"/>
<path d="M17.3334 12.167H8.42578V21.0746H17.3334V12.167Z" fill="white" stroke="#E4C066" stroke-width="1.19806" stroke-miterlimit="10"/>
<path d="M17.3334 24.0684H8.42578V32.976H17.3334V24.0684Z" fill="white" stroke="#E4C066" stroke-width="1.19806" stroke-miterlimit="10"/>
<path d="M26.9688 16.7646H30.0882" stroke="#E4C066" stroke-width="1.19806" stroke-miterlimit="10"/>
<path d="M25.9609 14.7354H31.0916" stroke="#E4C066" stroke-width="1.19806" stroke-miterlimit="10"/>
<path d="M11.0195 14.5869V18.4941L14.5373 16.5398L11.0195 14.5869Z" stroke="#E4C066" stroke-width="1.19806" stroke-miterlimit="10"/>
<path d="M10.2539 27.8779L12.4329 30.0569L15.5059 26.9854" fill="white"/>
<path d="M10.2539 27.8779L12.4329 30.0569L15.5059 26.9854" stroke="#E4C066" stroke-width="1.19806" stroke-miterlimit="10"/>
</svg>
