<svg width="46" height="46" viewBox="0 0 46 46" fill="none" xmlns="http://www.w3.org/2000/svg">
<path d="M45 12.6402V33.3215H41.8831V36.7802H38.3509V39.3224H35.0317V40.7353L32.7729 42.2187H30.8635V43.4293L28.9634 45.0015H17.0397L15.1365 43.4707V42.2616H13.2286L10.9698 40.7767V39.3638H7.64912V36.8215H4.11845V33.3644H1V12.6815H4.11845V9.2229H7.64912V6.68062H10.9698V5.26775L13.2286 3.78439H15.1365V2.57378L17.0366 1H28.9618L30.8635 2.53087V3.74301H32.7729L35.0317 5.22637V6.63773H38.3509V9.17999H41.8831V12.6402H45Z" stroke="#E4C066" stroke-width="1.22593" stroke-miterlimit="10"/>
<path d="M35.5494 30.4785H10.4531V35.5508H35.5494V30.4785Z" stroke="#E4C066" stroke-width="1.22593" stroke-miterlimit="10"/>
<path d="M35.5494 10.4541H10.4531V15.5248H35.5494V10.4541Z" stroke="#E4C066" stroke-width="1.22593" stroke-miterlimit="10"/>
<path d="M35.5494 15.5244H10.4531V30.4776H35.5494V15.5244Z" stroke="#E4C066" stroke-width="1.22593" stroke-miterlimit="10"/>
<path d="M35.5494 15.5244H10.4531V30.4776H35.5494V15.5244Z" stroke="#E4C066" stroke-width="1.22593" stroke-miterlimit="10"/>
<path d="M15.1199 13.9911H13.4465C12.9531 13.9911 12.5547 13.5912 12.5547 13.0993V12.8802C12.5547 12.3867 12.9546 11.9883 13.4465 11.9883H15.1199C15.6134 11.9883 16.0118 12.3882 16.0118 12.8802V13.0993C16.0118 13.5927 15.6134 13.9911 15.1199 13.9911Z" stroke="#E4C066" stroke-width="1.22593" stroke-miterlimit="10"/>
<path d="M20.9324 13.9911H19.259C18.7656 13.9911 18.3672 13.5912 18.3672 13.0993V12.8802C18.3672 12.3867 18.7671 11.9883 19.259 11.9883H20.9324C21.4259 11.9883 21.8243 12.3882 21.8243 12.8802V13.0993C21.8243 13.5927 21.4259 13.9911 20.9324 13.9911Z" stroke="#E4C066" stroke-width="1.22593" stroke-miterlimit="10"/>
<path d="M26.7488 13.9911H25.0755C24.582 13.9911 24.1836 13.5912 24.1836 13.0993V12.8802C24.1836 12.3867 24.5836 11.9883 25.0755 11.9883H26.7488C27.2423 11.9883 27.6407 12.3882 27.6407 12.8802V13.0993C27.6407 13.5927 27.2423 13.9911 26.7488 13.9911Z" stroke="#E4C066" stroke-width="1.22593" stroke-miterlimit="10"/>
<path d="M32.5652 13.9911H30.8919C30.3984 13.9911 30 13.5912 30 13.0993V12.8802C30 12.3867 30.4 11.9883 30.8919 11.9883H32.5652C33.0587 11.9883 33.4571 12.3882 33.4571 12.8802V13.0993C33.4586 13.5927 33.0587 13.9911 32.5652 13.9911Z" stroke="#E4C066" stroke-width="1.22593" stroke-miterlimit="10"/>
<path d="M15.1199 34.0165H13.4465C12.9531 34.0165 12.5547 33.6166 12.5547 33.1247V32.9055C12.5547 32.4121 12.9546 32.0137 13.4465 32.0137H15.1199C15.6134 32.0137 16.0118 32.4136 16.0118 32.9055V33.1247C16.0118 33.6166 15.6134 34.0165 15.1199 34.0165Z" stroke="#E4C066" stroke-width="1.22593" stroke-miterlimit="10"/>
<path d="M20.9324 34.0165H19.259C18.7656 34.0165 18.3672 33.6166 18.3672 33.1247V32.9055C18.3672 32.4121 18.7671 32.0137 19.259 32.0137H20.9324C21.4259 32.0137 21.8243 32.4136 21.8243 32.9055V33.1247C21.8243 33.6166 21.4259 34.0165 20.9324 34.0165Z" stroke="#E4C066" stroke-width="1.22593" stroke-miterlimit="10"/>
<path d="M26.7488 34.0165H25.0755C24.582 34.0165 24.1836 33.6166 24.1836 33.1247V32.9055C24.1836 32.4121 24.5836 32.0137 25.0755 32.0137H26.7488C27.2423 32.0137 27.6407 32.4136 27.6407 32.9055V33.1247C27.6407 33.6166 27.2423 34.0165 26.7488 34.0165Z" stroke="#E4C066" stroke-width="1.22593" stroke-miterlimit="10"/>
<path d="M32.5652 34.0165H30.8919C30.3984 34.0165 30 33.6166 30 33.1247V32.9055C30 32.4121 30.4 32.0137 30.8919 32.0137H32.5652C33.0587 32.0137 33.4571 32.4136 33.4571 32.9055V33.1247C33.4586 33.6166 33.0587 34.0165 32.5652 34.0165Z" stroke="#E4C066" stroke-width="1.22593" stroke-miterlimit="10"/>
<path d="M20.4375 21.6591L22.8863 24.1064L28.5884 18.4043" stroke="#E4C066" stroke-width="1.22593" stroke-miterlimit="10"/>
<path d="M27.2014 22.2472V27.2014H18.8008V18.8008H25.0086" stroke="#E4C066" stroke-width="1.22593" stroke-miterlimit="10"/>
</svg>
