<svg width="27" height="27" viewBox="0 0 27 27" fill="none" xmlns="http://www.w3.org/2000/svg">
<rect y="0.103516" width="26.026" height="26.026" rx="13.013" fill="white"/>
<path fill-rule="evenodd" clip-rule="evenodd" d="M13.013 0.103516C5.82611 0.103516 0 5.92963 0 13.1165C0 20.3034 5.82611 26.1295 13.013 26.1295C20.1999 26.1295 26.026 20.3034 26.026 13.1165C26.026 5.92963 20.1999 0.103516 13.013 0.103516ZM18.4355 8.64303C19.0328 8.80692 19.5031 9.28982 19.6628 9.90306C19.9528 11.0145 19.9528 13.3335 19.9528 13.3335C19.9528 13.3335 19.9528 15.6524 19.6628 16.7639C19.5031 17.3772 19.0328 17.8601 18.4355 18.024C17.3531 18.3218 13.0126 18.3218 13.0126 18.3218C13.0126 18.3218 8.67198 18.3218 7.58954 18.024C6.99228 17.8601 6.52192 17.3772 6.3623 16.7639C6.0723 15.6524 6.0723 13.3335 6.0723 13.3335C6.0723 13.3335 6.0723 11.0145 6.3623 9.90306C6.52192 9.28982 6.99228 8.80692 7.58954 8.64303C8.67198 8.34518 13.0126 8.34518 13.0126 8.34518C13.0126 8.34518 17.3531 8.34518 18.4355 8.64303Z" fill="#E4C066"/>
<path d="M11.7109 15.7185V11.3809L15.1811 13.5498L11.7109 15.7185Z" fill="#E4C066"/>
</svg>
